<?xml version="1.0" encoding="utf-8"?>
<!-- Generator: Adobe Illustrator 21.1.0, SVG Export Plug-In . SVG Version: 6.00 Build 0)  -->
<svg version="1.1" id="Layer_1" xmlns="http://www.w3.org/2000/svg" xmlns:xlink="http://www.w3.org/1999/xlink" x="0px" y="0px"
	 viewBox="0 0 20 80" style="enable-background:new 0 0 20 80;" xml:space="preserve">
<style type="text/css">
	.st0{fill:#FFFFFF;}
	.st1{fill:#000000;}
</style>
<circle class="st0" cx="10" cy="10" r="10"/>
<circle class="st1" cx="10" cy="10" r="8"/>
<circle class="st0" cx="10" cy="30" r="10"/>
<circle class="st1" cx="10" cy="30" r="8"/>
<circle class="st0" cx="10" cy="30" r="4"/>
<path class="st0" d="M17,60H3c-1.7,0-3-1.3-3-3V43c0-1.7,1.3-3,3-3h14c1.7,0,3,1.3,3,3v14C20,58.7,18.7,60,17,60z"/>
<path class="st1" d="M15.6,58H4.4C3.1,58,2,56.9,2,55.6V44.4C2,43.1,3.1,42,4.4,42h11.2c1.3,0,2.4,1.1,2.4,2.4v11.2
	C18,56.9,16.9,58,15.6,58z"/>
<path class="st0" d="M17,80H3c-1.7,0-3-1.3-3-3V63c0-1.7,1.3-3,3-3h14c1.7,0,3,1.3,3,3v14C20,78.7,18.7,80,17,80z"/>
<g>
	<path class="st1" d="M8.7,73.5c0,0-0.1,0-0.1,0s-0.1,0-0.1-0.1l-3.6-3.6c-0.1-0.1-0.1-0.2-0.1-0.3s0-0.2,0.1-0.3
		c0,0,0.1-0.1,0.1-0.1s0.1,0,0.1,0s0.1,0,0.1,0s0.1,0,0.1,0.1l3.3,3.3l5.9-5.9c0,0,0.1-0.1,0.1-0.1s0.1,0,0.1,0s0.1,0,0.1,0
		s0.1,0,0.1,0.1c0.1,0.1,0.1,0.2,0.1,0.3s0,0.2-0.1,0.3L9,73.4c0,0-0.1,0.1-0.1,0.1S8.7,73.5,8.7,73.5z"/>
</g>
</svg>
